<svg xmlns="http://www.w3.org/2000/svg" viewBox="0 0 64 64" width="64" height="64">
  <circle cx="20" cy="15" r="6" stroke="#0B6F73" stroke-width="1.7" fill="none"/>
  <path d="M20 21 C14 24 12 30 12 36" stroke="#0B6F73" stroke-width="1.7" stroke-linecap="round" fill="none"/>
  <path d="M20 21 C26 24 28 30 28 36" stroke="#0B6F73" stroke-width="1.7" stroke-linecap="round" fill="none"/>
  <line x1="20" y1="21" x2="20" y2="36" stroke="#0B6F73" stroke-width="1.7" stroke-linecap="round"/>
  <circle cx="44" cy="19" r="4.5" stroke="#0B6F73" stroke-width="1.6" fill="none"/>
  <path d="M44 23.5 C39 26 37 31 37 36" stroke="#0B6F73" stroke-width="1.6" stroke-linecap="round" fill="none"/>
  <path d="M44 23.5 C49 26 51 31 51 36" stroke="#0B6F73" stroke-width="1.6" stroke-linecap="round" fill="none"/>
  <line x1="44" y1="23.5" x2="44" y2="36" stroke="#0B6F73" stroke-width="1.6" stroke-linecap="round"/>
  <path d="M32 20 C32 18 30 16 28 17 C26 18 26 21 28 23 C29 24 32 26 32 26 C32 26 35 24 36 23 C38 21 38 18 36 17 C34 16 32 18 32 20Z" stroke="#0B6F73" stroke-width="1.3" fill="none"/>
</svg>
